<?xml version="1.0" encoding="utf-8" standalone="no"?>
<!DOCTYPE svg PUBLIC "-//W3C//DTD SVG 1.1//EN"
  "http://www.w3.org/Graphics/SVG/1.1/DTD/svg11.dtd">
<svg xmlns:xlink="http://www.w3.org/1999/xlink" width="508.07952pt" height="205.679521pt" viewBox="0 0 508.07952 205.679521" xmlns="http://www.w3.org/2000/svg" version="1.1">
 <metadata>
  <rdf:RDF xmlns:dc="http://purl.org/dc/elements/1.1/" xmlns:cc="http://creativecommons.org/ns#" xmlns:rdf="http://www.w3.org/1999/02/22-rdf-syntax-ns#">
   <cc:Work>
    <dc:type rdf:resource="http://purl.org/dc/dcmitype/StillImage"/>
    <dc:date>2026-09-26T17:13:46.641476</dc:date>
    <dc:format>image/svg+xml</dc:format>
    <dc:creator>
     <cc:Agent>
      <dc:title>Matplotlib v3.11.2, https://matplotlib.org/</dc:title>
     </cc:Agent>
    </dc:creator>
   </cc:Work>
  </rdf:RDF>
 </metadata>
 <defs>
  <style type="text/css">*{stroke-linejoin: round; stroke-linecap: butt}</style>
 </defs>
 <g id="figure_1">
  <g id="patch_1">
   <path d="M 0 205.679521 
L 508.07952 205.679521 
L 508.07952 0 
L 0 0 
z
" style="fill: #ffffff"/>
  </g>
  <g id="axes_1">
   <g id="patch_2">
    <path d="M 36.79 173.139521 
L 248.91452 173.139521 
L 248.91452 25.561478 
L 36.79 25.561478 
z
" style="fill: #ffffff"/>
   </g>
   <g id="matplotlib.axis_1">
    <g id="xtick_1">
     <g id="line2d_1">
      <defs>
       <path id="m460adb31c5" d="M 0 0 
L 0 3 
" style="stroke: #000000; stroke-width: 0.65"/>
      </defs>
      <g>
       <use xlink:href="#m460adb31c5" x="46.432024" y="173.139521" style="stroke: #000000; stroke-width: 0.65"/>
      </g>
     </g>
     <g id="text_1">
      <!-- 1 -->
      <g transform="translate(44.307024 186.944209) scale(0.085 -0.085)">
       <defs>
        <path id="SimSun-14" d="M 1825 4450 
L 1825 650 
Q 1825 450 1950 350 
Q 2075 250 2300 250 
L 2550 250 
L 2550 100 
L 725 100 
L 725 250 
L 950 250 
Q 1200 250 1312 350 
Q 1425 450 1425 650 
L 1425 3675 
Q 1425 3775 1362 3837 
Q 1300 3900 1175 3900 
L 725 3900 
L 725 4050 
L 950 4050 
Q 1250 4050 1437 4150 
Q 1625 4250 1725 4450 
L 1825 4450 
z
" transform="scale(0.015625)"/>
       </defs>
       <use xlink:href="#SimSun-14"/>
      </g>
     </g>
    </g>
    <g id="xtick_2">
     <g id="line2d_2">
      <g>
       <use xlink:href="#m460adb31c5" x="94.642142" y="173.139521" style="stroke: #000000; stroke-width: 0.65"/>
      </g>
     </g>
     <g id="text_2">
      <!-- 2 -->
      <g transform="translate(92.517142 186.944209) scale(0.085 -0.085)">
       <defs>
        <path id="SimSun-15" d="M 2325 3325 
Q 2325 3775 2125 4012 
Q 1925 4250 1525 4250 
Q 1225 4250 1012 4087 
Q 800 3925 800 3675 
Q 800 3525 900 3425 
Q 975 3325 975 3225 
Q 975 3100 912 3037 
Q 850 2975 725 2975 
Q 575 2975 487 3062 
Q 400 3150 400 3350 
Q 400 3875 775 4150 
Q 1150 4425 1575 4425 
Q 2175 4425 2462 4125 
Q 2750 3825 2750 3375 
Q 2750 3075 2612 2775 
Q 2475 2475 2175 2200 
Q 1450 1500 1062 1062 
Q 675 625 600 475 
L 2075 475 
Q 2300 475 2450 650 
Q 2600 825 2650 1175 
L 2800 1175 
L 2650 100 
L 325 100 
L 325 425 
Q 450 650 737 1000 
Q 1025 1350 1500 1825 
Q 1925 2250 2125 2625 
Q 2325 3000 2325 3325 
z
" transform="scale(0.015625)"/>
       </defs>
       <use xlink:href="#SimSun-15"/>
      </g>
     </g>
    </g>
    <g id="xtick_3">
     <g id="line2d_3">
      <g>
       <use xlink:href="#m460adb31c5" x="142.85226" y="173.139521" style="stroke: #000000; stroke-width: 0.65"/>
      </g>
     </g>
     <g id="text_3">
      <!-- 3 -->
      <g transform="translate(140.72726 186.944209) scale(0.085 -0.085)">
       <defs>
        <path id="SimSun-16" d="M 2800 1250 
Q 2800 775 2450 412 
Q 2100 50 1475 50 
Q 1025 50 700 300 
Q 375 550 375 875 
Q 375 1025 475 1137 
Q 575 1250 675 1250 
Q 825 1250 887 1137 
Q 950 1025 950 950 
Q 950 825 900 750 
Q 850 650 850 575 
Q 850 425 1037 325 
Q 1225 225 1450 225 
Q 1900 225 2125 487 
Q 2350 750 2350 1300 
Q 2350 1750 2112 2025 
Q 1875 2300 1225 2300 
L 1225 2475 
Q 1725 2475 1962 2712 
Q 2200 2950 2200 3375 
Q 2200 3725 2012 3987 
Q 1825 4250 1425 4250 
Q 1250 4250 1050 4162 
Q 850 4075 850 3875 
Q 850 3675 900 3625 
Q 950 3575 950 3500 
Q 950 3375 900 3300 
Q 850 3225 725 3225 
Q 625 3225 537 3300 
Q 450 3375 450 3575 
Q 450 3950 775 4187 
Q 1100 4425 1525 4425 
Q 2025 4425 2325 4112 
Q 2625 3800 2625 3450 
Q 2625 3075 2437 2812 
Q 2250 2550 1850 2425 
Q 2400 2225 2600 1900 
Q 2800 1575 2800 1250 
z
" transform="scale(0.015625)"/>
       </defs>
       <use xlink:href="#SimSun-16"/>
      </g>
     </g>
    </g>
    <g id="xtick_4">
     <g id="line2d_4">
      <g>
       <use xlink:href="#m460adb31c5" x="191.062378" y="173.139521" style="stroke: #000000; stroke-width: 0.65"/>
      </g>
     </g>
     <g id="text_4">
      <!-- 4 -->
      <g transform="translate(188.937378 186.944209) scale(0.085 -0.085)">
       <defs>
        <path id="SimSun-17" d="M 2300 575 
Q 2300 400 2400 325 
Q 2500 250 2675 250 
L 2900 250 
L 2900 100 
L 1250 100 
L 1250 250 
L 1525 250 
Q 1725 250 1812 325 
Q 1900 400 1900 575 
L 1900 1400 
L 225 1400 
L 225 1525 
L 2050 4425 
L 2300 4425 
L 2300 1550 
L 2975 1550 
L 2975 1400 
L 2300 1400 
L 2300 575 
z
M 1875 3800 
L 450 1550 
L 1900 1550 
L 1900 3800 
L 1875 3800 
z
" transform="scale(0.015625)"/>
       </defs>
       <use xlink:href="#SimSun-17"/>
      </g>
     </g>
    </g>
    <g id="xtick_5">
     <g id="line2d_5">
      <g>
       <use xlink:href="#m460adb31c5" x="239.272496" y="173.139521" style="stroke: #000000; stroke-width: 0.65"/>
      </g>
     </g>
     <g id="text_5">
      <!-- 5 -->
      <g transform="translate(237.147496 186.944209) scale(0.085 -0.085)">
       <defs>
        <path id="SimSun-18" d="M 1725 2850 
Q 2200 2850 2500 2487 
Q 2800 2125 2800 1525 
Q 2800 850 2487 450 
Q 2175 50 1525 50 
Q 1075 50 725 312 
Q 375 575 375 950 
Q 375 1100 462 1212 
Q 550 1325 700 1325 
Q 850 1325 900 1225 
Q 950 1125 950 1050 
Q 950 900 875 825 
Q 800 725 800 625 
Q 800 425 1037 325 
Q 1275 225 1550 225 
Q 1950 225 2162 550 
Q 2375 875 2375 1475 
Q 2375 1975 2187 2287 
Q 2000 2600 1625 2600 
Q 1350 2600 1150 2500 
Q 950 2400 775 2075 
L 550 2100 
L 675 4375 
L 2725 4375 
L 2650 4000 
L 850 4000 
L 750 2350 
Q 1000 2700 1237 2775 
Q 1475 2850 1725 2850 
z
" transform="scale(0.015625)"/>
       </defs>
       <use xlink:href="#SimSun-18"/>
      </g>
     </g>
    </g>
    <g id="text_6">
     <!-- 核心数 -->
     <g transform="translate(130.10226 199.444209) scale(0.085 -0.085)">
      <defs>
       <path id="SimSun-1e68" d="M 3625 5200 
L 3700 5250 
Q 4225 4950 4287 4837 
Q 4350 4725 4350 4625 
Q 4350 4475 4262 4362 
Q 4175 4250 4125 4250 
Q 4050 4250 4000 4500 
Q 3900 4850 3625 5200 
z
M 3100 2575 
L 4300 2575 
Q 4475 2825 4587 3025 
Q 4700 3225 4825 3525 
L 5300 3125 
L 5050 3025 
Q 3875 1300 2325 525 
L 2300 625 
Q 3350 1275 4225 2450 
Q 3150 2350 2950 2125 
L 2725 2600 
Q 2975 2625 3275 3075 
Q 3575 3525 3750 4025 
L 2950 4025 
L 2725 3975 
L 2525 4175 
L 5275 4175 
L 5575 4475 
L 6025 4025 
L 3850 4025 
L 4275 3725 
L 4050 3650 
Q 3625 3050 3100 2575 
z
M 5250 2375 
L 5725 2000 
L 5500 1925 
Q 5050 1350 4550 875 
Q 5425 375 5600 175 
Q 5775 -25 5775 -200 
Q 5775 -275 5712 -400 
Q 5650 -525 5600 -525 
Q 5500 -525 5350 -200 
Q 5100 275 4450 775 
Q 3400 -175 2100 -575 
L 2075 -475 
Q 4175 425 5250 2375 
z
M 1700 775 
Q 1700 450 1725 -425 
L 1325 -625 
Q 1350 850 1350 2425 
Q 950 1475 375 800 
L 325 875 
Q 1000 2025 1325 3575 
L 775 3575 
L 550 3525 
L 350 3725 
L 1350 3725 
Q 1350 4550 1325 5275 
L 1900 5000 
L 1700 4825 
L 1700 3725 
L 2025 3725 
L 2300 4000 
L 2725 3575 
L 1700 3575 
L 1700 2950 
Q 2225 2750 2362 2612 
Q 2500 2475 2500 2325 
Q 2500 2200 2450 2075 
Q 2400 1950 2375 1950 
Q 2275 1950 2150 2225 
Q 1950 2600 1700 2825 
L 1700 775 
z
" transform="scale(0.015625)"/>
       <path id="SimSun-15f3" d="M 2750 4875 
Q 3350 4525 3625 4275 
Q 3900 4025 3862 3762 
Q 3825 3500 3725 3412 
Q 3625 3325 3575 3325 
Q 3450 3325 3350 3675 
Q 3200 4125 2675 4800 
L 2750 4875 
z
M 2025 3800 
L 2650 3475 
L 2425 3275 
L 2425 725 
Q 2400 225 2775 200 
L 4200 200 
Q 4475 225 4537 625 
Q 4600 1025 4625 1675 
L 4750 1675 
Q 4750 1000 4812 687 
Q 4875 375 5150 275 
Q 4950 -125 4425 -125 
L 2575 -125 
Q 2000 -100 2050 625 
L 2050 2675 
Q 2050 3325 2025 3800 
z
M 1225 2900 
L 1350 2900 
Q 1350 2100 1300 1725 
Q 1250 1350 1087 1225 
Q 925 1100 775 1100 
Q 700 1100 587 1137 
Q 475 1175 475 1250 
Q 475 1375 700 1625 
Q 1025 2000 1225 2900 
z
M 4850 2925 
L 4925 2975 
Q 5675 2300 5825 2050 
Q 5975 1800 5925 1550 
Q 5875 1300 5775 1237 
Q 5675 1175 5625 1175 
Q 5500 1175 5450 1525 
Q 5375 1975 4850 2925 
z
" transform="scale(0.015625)"/>
       <path id="SimSun-1ba0" d="M 1875 1525 
Q 1675 1200 1500 900 
Q 1825 825 2275 725 
Q 2500 975 2725 1525 
L 1875 1525 
z
M 850 4900 
Q 1325 4600 1425 4450 
Q 1525 4300 1525 4225 
Q 1525 4100 1437 3975 
Q 1350 3850 1300 3850 
Q 1225 3850 1150 4100 
Q 1050 4450 775 4850 
L 850 4900 
z
M 3000 4975 
L 3450 4675 
Q 3250 4625 3100 4425 
Q 2925 4225 2525 3825 
L 2450 3875 
Q 2925 4625 3000 4975 
z
M 1875 5250 
L 2425 5000 
L 2225 4825 
L 2225 3675 
L 2850 3675 
L 3125 3950 
L 3550 3525 
L 2225 3525 
L 2225 3300 
Q 2800 3175 2937 3062 
Q 3075 2950 3075 2775 
Q 3075 2700 3050 2587 
Q 3025 2475 2975 2475 
Q 2925 2475 2800 2650 
Q 2600 2925 2225 3175 
L 2225 2400 
L 1925 2200 
L 2275 2050 
Q 2150 2000 1950 1675 
L 2725 1675 
L 2900 1900 
L 3275 1575 
L 3050 1450 
Q 2800 875 2600 650 
Q 3000 550 3137 437 
Q 3275 325 3275 150 
Q 3275 -25 3200 -25 
Q 3125 -25 3025 75 
Q 2750 275 2400 425 
Q 1525 -275 325 -500 
L 300 -425 
Q 1450 -50 2100 550 
Q 1600 725 1125 800 
Q 1225 950 1525 1525 
L 1200 1525 
Q 875 1525 600 1450 
L 375 1675 
L 1575 1675 
Q 1675 1925 1775 2275 
L 1900 2225 
L 1900 3250 
Q 1225 2475 350 2050 
L 300 2125 
Q 1225 2775 1700 3525 
L 1250 3525 
Q 925 3525 650 3450 
L 425 3675 
L 1900 3675 
Q 1900 4575 1875 5250 
z
M 3925 3525 
Q 4050 2075 4525 1100 
Q 4925 1950 5025 3525 
L 3925 3525 
z
M 4050 5250 
L 4625 4925 
Q 4425 4850 4325 4625 
Q 4225 4400 3950 3675 
L 5375 3675 
L 5675 3975 
L 6125 3525 
L 5400 3525 
Q 5250 1675 4750 775 
Q 5325 75 6100 -100 
L 6100 -200 
Q 5625 -275 5600 -500 
Q 4950 -50 4525 525 
Q 3700 -275 2550 -650 
L 2500 -575 
Q 3650 -50 4325 800 
Q 3850 1975 3825 3375 
Q 3575 2725 3100 2150 
L 3025 2200 
Q 3625 3200 4050 5250 
z
" transform="scale(0.015625)"/>
      </defs>
      <use xlink:href="#SimSun-1e68"/>
      <use xlink:href="#SimSun-15f3" transform="translate(100 0)"/>
      <use xlink:href="#SimSun-1ba0" transform="translate(200 0)"/>
     </g>
    </g>
   </g>
   <g id="matplotlib.axis_2">
    <g id="ytick_1">
     <g id="line2d_6">
      <path d="M 36.79 166.431429 
L 248.91452 166.431429 
" clip-path="url(#p09497ff226)" style="fill: none; stroke: #e6e6e6; stroke-width: 0.5; stroke-linecap: square"/>
     </g>
     <g id="line2d_7">
      <defs>
       <path id="m0a3200f2f8" d="M 0 0 
L -3 0 
" style="stroke: #000000; stroke-width: 0.65"/>
      </defs>
      <g>
       <use xlink:href="#m0a3200f2f8" x="36.79" y="166.431429" style="stroke: #000000; stroke-width: 0.65"/>
      </g>
     </g>
     <g id="text_7">
      <!-- 1.0 -->
      <g transform="translate(17.54 170.083772) scale(0.085 -0.085)">
       <defs>
        <path id="SimSun-11" d="M 800 25 
Q 650 25 537 125 
Q 425 225 425 400 
Q 425 575 537 675 
Q 650 775 800 775 
Q 950 775 1062 662 
Q 1175 550 1175 400 
Q 1175 225 1062 125 
Q 950 25 800 25 
z
" transform="scale(0.015625)"/>
        <path id="SimSun-13" d="M 1600 4225 
Q 1250 4225 1012 3687 
Q 775 3150 775 2250 
Q 775 1300 1012 775 
Q 1250 250 1600 250 
Q 1975 250 2187 775 
Q 2400 1300 2400 2250 
Q 2400 3150 2200 3687 
Q 2000 4225 1600 4225 
z
M 1600 50 
Q 1050 50 675 625 
Q 300 1200 300 2250 
Q 300 3225 662 3825 
Q 1025 4425 1600 4425 
Q 2150 4425 2512 3850 
Q 2875 3275 2875 2250 
Q 2875 1225 2512 637 
Q 2150 50 1600 50 
z
" transform="scale(0.015625)"/>
       </defs>
       <use xlink:href="#SimSun-14"/>
       <use xlink:href="#SimSun-11" transform="translate(50 0)"/>
       <use xlink:href="#SimSun-13" transform="translate(100 0)"/>
      </g>
     </g>
    </g>
    <g id="ytick_2">
     <g id="line2d_8">
      <path d="M 36.79 143.708848 
L 248.91452 143.708848 
" clip-path="url(#p09497ff226)" style="fill: none; stroke: #e6e6e6; stroke-width: 0.5; stroke-linecap: square"/>
     </g>
     <g id="line2d_9">
      <g>
       <use xlink:href="#m0a3200f2f8" x="36.79" y="143.708848" style="stroke: #000000; stroke-width: 0.65"/>
      </g>
     </g>
     <g id="text_8">
      <!-- 1.5 -->
      <g transform="translate(17.54 147.361192) scale(0.085 -0.085)">
       <use xlink:href="#SimSun-14"/>
       <use xlink:href="#SimSun-11" transform="translate(50 0)"/>
       <use xlink:href="#SimSun-18" transform="translate(100 0)"/>
      </g>
     </g>
    </g>
    <g id="ytick_3">
     <g id="line2d_10">
      <path d="M 36.79 120.986267 
L 248.91452 120.986267 
" clip-path="url(#p09497ff226)" style="fill: none; stroke: #e6e6e6; stroke-width: 0.5; stroke-linecap: square"/>
     </g>
     <g id="line2d_11">
      <g>
       <use xlink:href="#m0a3200f2f8" x="36.79" y="120.986267" style="stroke: #000000; stroke-width: 0.65"/>
      </g>
     </g>
     <g id="text_9">
      <!-- 2.0 -->
      <g transform="translate(17.54 124.638611) scale(0.085 -0.085)">
       <use xlink:href="#SimSun-15"/>
       <use xlink:href="#SimSun-11" transform="translate(50 0)"/>
       <use xlink:href="#SimSun-13" transform="translate(100 0)"/>
      </g>
     </g>
    </g>
    <g id="ytick_4">
     <g id="line2d_12">
      <path d="M 36.79 98.263686 
L 248.91452 98.263686 
" clip-path="url(#p09497ff226)" style="fill: none; stroke: #e6e6e6; stroke-width: 0.5; stroke-linecap: square"/>
     </g>
     <g id="line2d_13">
      <g>
       <use xlink:href="#m0a3200f2f8" x="36.79" y="98.263686" style="stroke: #000000; stroke-width: 0.65"/>
      </g>
     </g>
     <g id="text_10">
      <!-- 2.5 -->
      <g transform="translate(17.54 101.91603) scale(0.085 -0.085)">
       <use xlink:href="#SimSun-15"/>
       <use xlink:href="#SimSun-11" transform="translate(50 0)"/>
       <use xlink:href="#SimSun-18" transform="translate(100 0)"/>
      </g>
     </g>
    </g>
    <g id="ytick_5">
     <g id="line2d_14">
      <path d="M 36.79 75.541106 
L 248.91452 75.541106 
" clip-path="url(#p09497ff226)" style="fill: none; stroke: #e6e6e6; stroke-width: 0.5; stroke-linecap: square"/>
     </g>
     <g id="line2d_15">
      <g>
       <use xlink:href="#m0a3200f2f8" x="36.79" y="75.541106" style="stroke: #000000; stroke-width: 0.65"/>
      </g>
     </g>
     <g id="text_11">
      <!-- 3.0 -->
      <g transform="translate(17.54 79.193449) scale(0.085 -0.085)">
       <use xlink:href="#SimSun-16"/>
       <use xlink:href="#SimSun-11" transform="translate(50 0)"/>
       <use xlink:href="#SimSun-13" transform="translate(100 0)"/>
      </g>
     </g>
    </g>
    <g id="ytick_6">
     <g id="line2d_16">
      <path d="M 36.79 52.818525 
L 248.91452 52.818525 
" clip-path="url(#p09497ff226)" style="fill: none; stroke: #e6e6e6; stroke-width: 0.5; stroke-linecap: square"/>
     </g>
     <g id="line2d_17">
      <g>
       <use xlink:href="#m0a3200f2f8" x="36.79" y="52.818525" style="stroke: #000000; stroke-width: 0.65"/>
      </g>
     </g>
     <g id="text_12">
      <!-- 3.5 -->
      <g transform="translate(17.54 56.470869) scale(0.085 -0.085)">
       <use xlink:href="#SimSun-16"/>
       <use xlink:href="#SimSun-11" transform="translate(50 0)"/>
       <use xlink:href="#SimSun-18" transform="translate(100 0)"/>
      </g>
     </g>
    </g>
    <g id="ytick_7">
     <g id="line2d_18">
      <path d="M 36.79 30.095944 
L 248.91452 30.095944 
" clip-path="url(#p09497ff226)" style="fill: none; stroke: #e6e6e6; stroke-width: 0.5; stroke-linecap: square"/>
     </g>
     <g id="line2d_19">
      <g>
       <use xlink:href="#m0a3200f2f8" x="36.79" y="30.095944" style="stroke: #000000; stroke-width: 0.65"/>
      </g>
     </g>
     <g id="text_13">
      <!-- 4.0 -->
      <g transform="translate(17.54 33.748288) scale(0.085 -0.085)">
       <use xlink:href="#SimSun-17"/>
       <use xlink:href="#SimSun-11" transform="translate(50 0)"/>
       <use xlink:href="#SimSun-13" transform="translate(100 0)"/>
      </g>
     </g>
    </g>
    <g id="text_14">
     <!-- 平均加速比 -->
     <g transform="translate(12.344688 120.6005) rotate(-90) scale(0.085 -0.085)">
      <defs>
       <path id="SimSun-14a3" d="M 3375 750 
Q 3375 200 3400 -350 
L 2975 -525 
Q 3000 250 3000 875 
L 3000 2325 
L 1050 2325 
Q 725 2325 450 2250 
L 225 2475 
L 3000 2475 
L 3000 4575 
L 1600 4575 
Q 1275 4575 1000 4500 
L 775 4725 
L 4850 4725 
L 5200 5075 
L 5700 4575 
L 3375 4575 
L 3375 2475 
L 5200 2475 
L 5575 2850 
L 6100 2325 
L 3375 2325 
L 3375 750 
z
M 4750 4325 
L 5275 3925 
Q 5075 3925 4725 3475 
Q 4350 3025 3925 2625 
L 3850 2675 
Q 4500 3550 4750 4325 
z
M 1300 4200 
Q 2025 3675 2150 3487 
Q 2275 3300 2275 3150 
Q 2275 3075 2237 2962 
Q 2200 2850 2062 2750 
Q 1925 2650 1800 3100 
Q 1675 3525 1225 4150 
L 1300 4200 
z
" transform="scale(0.015625)"/>
       <path id="SimSun-d77" d="M 4075 4875 
L 3825 4725 
Q 3650 4325 3475 3925 
L 5400 3925 
L 5625 4175 
L 5975 3850 
L 5775 3675 
Q 5725 800 5612 337 
Q 5500 -125 5275 -312 
Q 5050 -500 4725 -625 
Q 4625 -250 3800 -25 
L 3800 100 
Q 4575 -50 4887 -12 
Q 5200 25 5287 750 
Q 5375 1475 5425 3775 
L 3425 3775 
Q 2975 2950 2500 2450 
L 2400 2500 
Q 2875 3200 3150 3950 
Q 3425 4700 3475 5200 
L 4075 4875 
z
M 3500 3175 
Q 4075 2850 4237 2637 
Q 4400 2425 4400 2300 
Q 4400 2175 4287 2025 
Q 4175 1875 4125 1875 
Q 4050 1875 3975 2125 
Q 3875 2500 3425 3100 
L 3500 3175 
z
M 4975 1750 
Q 4525 1425 3850 1000 
Q 3150 550 2900 225 
L 2525 700 
Q 2875 800 3462 1075 
Q 4050 1350 4925 1850 
L 4975 1750 
z
M 1700 1100 
L 2775 1500 
L 2825 1375 
Q 1875 925 1325 637 
Q 775 350 650 175 
L 275 675 
Q 950 850 1350 1000 
L 1350 3150 
L 750 3150 
L 525 3100 
L 325 3300 
L 1350 3300 
Q 1350 4700 1325 5175 
L 1925 4875 
L 1700 4675 
L 1700 3300 
L 1975 3300 
L 2250 3575 
L 2650 3150 
L 1700 3150 
L 1700 1100 
z
" transform="scale(0.015625)"/>
       <path id="SimSun-8d0" d="M 1500 3800 
Q 1500 4700 1475 5250 
L 2075 4975 
L 1850 4800 
L 1850 3800 
L 2750 3800 
L 2950 4050 
L 3325 3725 
L 3100 3550 
Q 3025 650 2825 200 
Q 2625 -250 2150 -350 
Q 2175 -25 1450 250 
L 1475 375 
Q 2050 225 2225 225 
Q 2325 225 2437 287 
Q 2550 350 2637 862 
Q 2725 1375 2775 3650 
L 1850 3650 
Q 1825 2825 1762 2212 
Q 1700 1600 1400 900 
Q 1100 200 325 -525 
L 250 -450 
Q 825 225 1087 875 
Q 1350 1525 1425 2200 
Q 1500 2875 1500 3650 
L 825 3650 
L 525 3600 
L 325 3800 
L 1500 3800 
z
M 5725 3700 
L 5725 975 
Q 5725 375 5750 -175 
L 5400 -325 
L 5400 350 
L 4075 350 
L 4075 -300 
L 3725 -475 
Q 3750 300 3750 1850 
Q 3750 3400 3725 4175 
L 4100 3925 
L 5350 3925 
L 5575 4150 
L 5900 3825 
L 5725 3700 
z
M 4075 3775 
L 4075 500 
L 5400 500 
L 5400 3775 
L 4075 3775 
z
" transform="scale(0.015625)"/>
       <path id="SimSun-464f" d="M 2800 3275 
L 2800 2400 
L 3700 2400 
L 3700 3275 
L 2800 3275 
z
M 4025 3275 
L 4025 2400 
L 4950 2400 
L 4950 3275 
L 4025 3275 
z
M 4025 1675 
Q 4025 800 4050 175 
L 3650 25 
Q 3700 775 3700 1875 
Q 2950 950 2000 450 
L 1950 525 
Q 3075 1375 3550 2250 
L 2800 2250 
L 2800 2025 
L 2475 1900 
L 2475 3600 
L 2800 3425 
L 3700 3425 
L 3700 4125 
L 2700 4125 
Q 2375 4125 2100 4050 
L 1875 4275 
L 3700 4275 
Q 3700 4650 3675 5175 
L 4250 4950 
L 4025 4775 
L 4025 4275 
L 5150 4275 
L 5475 4550 
L 5900 4125 
L 4025 4125 
L 4025 3425 
L 4900 3425 
L 5075 3675 
L 5500 3400 
L 5275 3225 
Q 5275 2575 5300 2100 
L 4950 1975 
L 4950 2250 
L 4025 2250 
L 4025 1800 
Q 4850 1550 5225 1350 
Q 5600 1150 5612 925 
Q 5625 700 5537 600 
Q 5450 500 5150 875 
Q 4850 1250 4025 1675 
z
M 675 4775 
L 750 4825 
Q 1125 4625 1350 4437 
Q 1575 4250 1562 4100 
Q 1550 3950 1450 3837 
Q 1350 3725 1300 3725 
Q 1200 3725 1125 4000 
Q 1000 4375 675 4775 
z
M 1600 675 
Q 1875 400 2287 150 
Q 2700 -100 3762 -112 
Q 4825 -125 6150 25 
L 6150 -75 
Q 5675 -225 5650 -475 
Q 4500 -500 3762 -475 
Q 3025 -450 2550 -250 
Q 2075 -50 1825 250 
Q 1550 525 1425 525 
Q 1300 525 1025 237 
Q 750 -50 625 -275 
L 275 50 
Q 675 400 1275 700 
L 1275 2675 
L 1050 2675 
Q 725 2675 450 2600 
L 225 2825 
L 1225 2825 
L 1400 3075 
L 1825 2775 
L 1600 2600 
L 1600 675 
z
" transform="scale(0.015625)"/>
       <path id="SimSun-2204" d="M 1050 3400 
Q 1050 4525 1025 5075 
L 1625 4800 
L 1400 4600 
L 1400 2925 
L 2400 2925 
L 2700 3225 
L 3150 2775 
L 1400 2775 
L 1400 350 
L 3050 925 
L 3100 825 
Q 1625 150 1250 -250 
L 950 175 
Q 1050 275 1050 525 
L 1050 3400 
z
M 3425 3825 
Q 3425 4575 3400 5125 
L 4025 4825 
L 3775 4625 
L 3775 2525 
Q 4300 2925 4712 3400 
Q 5125 3875 5275 4175 
L 5775 3700 
Q 5475 3650 5025 3250 
Q 4550 2850 3775 2375 
L 3775 425 
Q 3775 125 4100 125 
L 5125 125 
Q 5325 125 5400 350 
Q 5475 575 5500 1425 
L 5625 1425 
Q 5625 825 5712 550 
Q 5800 275 6000 175 
Q 5875 -25 5712 -112 
Q 5550 -200 5275 -200 
L 3975 -200 
Q 3425 -200 3425 275 
L 3425 3825 
z
" transform="scale(0.015625)"/>
      </defs>
      <use xlink:href="#SimSun-14a3"/>
      <use xlink:href="#SimSun-d77" transform="translate(100 0)"/>
      <use xlink:href="#SimSun-8d0" transform="translate(200 0)"/>
      <use xlink:href="#SimSun-464f" transform="translate(300 0)"/>
      <use xlink:href="#SimSun-2204" transform="translate(400 0)"/>
     </g>
    </g>
   </g>
   <g id="line2d_20">
    <path d="M 46.432024 166.431429 
L 94.642142 127.129338 
L 142.85226 93.644498 
L 191.062378 63.496582 
L 239.272496 37.773153 
" clip-path="url(#p09497ff226)" style="fill: none; stroke: #262626; stroke-width: 1.2; stroke-linecap: square"/>
    <defs>
     <path id="m485debef98" d="M 0 2 
C 0.530406 2 1.03916 1.789267 1.414214 1.414214 
C 1.789267 1.03916 2 0.530406 2 0 
C 2 -0.530406 1.789267 -1.03916 1.414214 -1.414214 
C 1.03916 -1.789267 0.530406 -2 0 -2 
C -0.530406 -2 -1.03916 -1.789267 -1.414214 -1.414214 
C -1.789267 -1.03916 -2 -0.530406 -2 0 
C -2 0.530406 -1.789267 1.03916 -1.414214 1.414214 
C -1.03916 1.789267 -0.530406 2 0 2 
z
" style="stroke: #262626"/>
    </defs>
    <g clip-path="url(#p09497ff226)">
     <use xlink:href="#m485debef98" x="46.432024" y="166.431429" style="fill: #262626; stroke: #262626"/>
     <use xlink:href="#m485debef98" x="94.642142" y="127.129338" style="fill: #262626; stroke: #262626"/>
     <use xlink:href="#m485debef98" x="142.85226" y="93.644498" style="fill: #262626; stroke: #262626"/>
     <use xlink:href="#m485debef98" x="191.062378" y="63.496582" style="fill: #262626; stroke: #262626"/>
     <use xlink:href="#m485debef98" x="239.272496" y="37.773153" style="fill: #262626; stroke: #262626"/>
    </g>
   </g>
   <g id="line2d_21">
    <path d="M 46.432024 166.431429 
L 94.642142 123.905947 
L 142.85226 87.118971 
L 191.062378 54.429634 
L 239.272496 32.269571 
" clip-path="url(#p09497ff226)" style="fill: none; stroke-dasharray: 4.44,1.92; stroke-dashoffset: 0; stroke: #808080; stroke-width: 1.2"/>
    <defs>
     <path id="me199d9bd4e" d="M -2 2 
L 2 2 
L 2 -2 
L -2 -2 
z
" style="stroke: #808080; stroke-linejoin: miter"/>
    </defs>
    <g clip-path="url(#p09497ff226)">
     <use xlink:href="#me199d9bd4e" x="46.432024" y="166.431429" style="fill: #808080; stroke: #808080; stroke-linejoin: miter"/>
     <use xlink:href="#me199d9bd4e" x="94.642142" y="123.905947" style="fill: #808080; stroke: #808080; stroke-linejoin: miter"/>
     <use xlink:href="#me199d9bd4e" x="142.85226" y="87.118971" style="fill: #808080; stroke: #808080; stroke-linejoin: miter"/>
     <use xlink:href="#me199d9bd4e" x="191.062378" y="54.429634" style="fill: #808080; stroke: #808080; stroke-linejoin: miter"/>
     <use xlink:href="#me199d9bd4e" x="239.272496" y="32.269571" style="fill: #808080; stroke: #808080; stroke-linejoin: miter"/>
    </g>
   </g>
   <g id="patch_3">
    <path d="M 36.79 173.139521 
L 36.79 25.561478 
" style="fill: none; stroke: #000000; stroke-width: 0.65; stroke-linejoin: miter; stroke-linecap: square"/>
   </g>
   <g id="patch_4">
    <path d="M 36.79 173.139521 
L 248.91452 173.139521 
" style="fill: none; stroke: #000000; stroke-width: 0.65; stroke-linejoin: miter; stroke-linecap: square"/>
   </g>
   <g id="text_15">
    <!-- a -->
    <g transform="translate(9.213812 14.493125) scale(0.11 -0.11)">
     <defs>
      <path id="SimSun-44" d="M 1225 75 
Q 775 75 525 287 
Q 275 500 275 775 
Q 275 1225 662 1512 
Q 1050 1800 2200 1925 
L 2200 2225 
Q 2200 2475 2087 2637 
Q 1975 2800 1575 2800 
Q 1150 2800 975 2662 
Q 800 2525 850 2375 
Q 875 2325 875 2275 
Q 875 2225 837 2150 
Q 800 2075 650 2075 
Q 550 2075 487 2137 
Q 425 2200 425 2325 
Q 425 2550 750 2750 
Q 1075 2950 1550 2950 
Q 2050 2950 2300 2762 
Q 2550 2575 2550 2225 
L 2550 575 
Q 2550 375 2587 337 
Q 2625 300 2725 300 
Q 2850 300 2900 412 
Q 2950 525 2950 725 
L 3075 725 
Q 3075 375 2950 237 
Q 2825 100 2625 100 
Q 2450 100 2350 175 
Q 2250 250 2200 425 
Q 1950 250 1737 162 
Q 1525 75 1225 75 
z
M 700 850 
Q 700 625 837 437 
Q 975 250 1275 250 
Q 1500 250 1725 337 
Q 1950 425 2200 600 
L 2200 1775 
Q 1350 1675 1025 1437 
Q 700 1200 700 850 
z
" transform="scale(0.015625)"/>
     </defs>
     <use xlink:href="#SimSun-44"/>
    </g>
   </g>
   <g id="text_16">
    <!-- 系统完工时间对应的加速比 -->
    <g transform="translate(36.79 14.561478) scale(0.09 -0.09)">
     <defs>
      <path id="SimSun-332b" d="M 4975 1950 
L 3600 1850 
L 3600 200 
Q 3650 -400 3025 -575 
Q 3025 -175 2250 0 
L 2250 100 
Q 2900 25 3087 25 
Q 3275 25 3250 375 
L 3250 1800 
Q 2550 1750 2112 1662 
Q 1675 1575 1425 1475 
L 1175 1950 
Q 1450 1975 2037 2250 
Q 2625 2525 3675 3175 
Q 2675 3075 2275 2987 
Q 1875 2900 1625 2775 
L 1375 3275 
Q 1725 3300 2237 3687 
Q 2750 4075 3075 4550 
Q 1600 4450 1025 4450 
L 1025 4550 
Q 2525 4675 3475 4837 
Q 4425 5000 5075 5250 
L 5450 4775 
Q 5075 4800 4437 4725 
Q 3800 4650 3175 4575 
L 3675 4325 
Q 3350 4275 2800 3825 
Q 2225 3375 1925 3250 
L 3900 3325 
Q 4375 3650 4625 3975 
L 5100 3575 
Q 4825 3550 4475 3350 
Q 4100 3125 3212 2625 
Q 2325 2125 1900 1925 
L 4875 2075 
Q 4500 2450 4250 2625 
L 4300 2700 
Q 4975 2450 5287 2262 
Q 5600 2075 5612 1862 
Q 5625 1650 5512 1475 
Q 5400 1300 5287 1500 
Q 5175 1700 4975 1950 
z
M 4000 1300 
Q 5175 800 5462 600 
Q 5750 400 5775 162 
Q 5800 -75 5712 -200 
Q 5625 -325 5600 -325 
Q 5475 -325 5325 -25 
Q 5075 425 3950 1225 
L 4000 1300 
z
M 2250 1400 
L 2700 950 
Q 2500 950 1875 475 
Q 1250 -25 425 -375 
L 375 -300 
Q 925 25 1437 462 
Q 1950 900 2250 1400 
z
" transform="scale(0.015625)"/>
      <path id="SimSun-350f" d="M 3675 5150 
L 3725 5225 
Q 4350 4925 4425 4737 
Q 4500 4550 4375 4387 
Q 4250 4225 4200 4225 
Q 4125 4225 4075 4450 
Q 3975 4800 3675 5150 
z
M 2675 2525 
Q 2950 2600 3337 3100 
Q 3725 3600 3900 4050 
L 3350 4050 
Q 3025 4050 2750 3975 
L 2525 4200 
L 5225 4200 
L 5575 4550 
L 6000 4050 
L 4025 4050 
L 4400 3750 
Q 4150 3675 3875 3400 
Q 3600 3125 3100 2525 
L 5175 2625 
Q 4900 2950 4550 3275 
L 4600 3350 
Q 5025 3150 5362 2950 
Q 5700 2750 5737 2650 
Q 5775 2550 5775 2450 
Q 5775 2300 5712 2175 
Q 5650 2050 5600 2050 
Q 5575 2050 5525 2150 
Q 5425 2300 5275 2500 
Q 4525 2425 3862 2337 
Q 3200 2250 2900 2050 
L 2675 2525 
z
M 3500 2275 
L 3875 2350 
L 3850 1775 
Q 3775 550 3325 112 
Q 2875 -325 1950 -600 
L 1925 -525 
Q 2625 -175 2950 150 
Q 3275 475 3387 962 
Q 3500 1450 3500 2275 
z
M 4475 2450 
L 4800 2500 
L 4800 1750 
L 4800 175 
Q 4775 -150 5175 -125 
L 5375 -125 
Q 5625 -125 5650 87 
Q 5675 300 5700 825 
L 5825 825 
Q 5825 425 5875 187 
Q 5925 -50 6100 -75 
Q 5975 -425 5600 -425 
L 4975 -425 
Q 4475 -450 4475 25 
L 4475 2450 
z
M 425 500 
Q 675 525 1212 637 
Q 1750 750 2700 975 
L 2725 875 
Q 2200 700 1550 462 
Q 900 225 675 -25 
L 425 500 
z
M 1000 1825 
Q 1275 1850 2625 2025 
L 2650 1925 
Q 2050 1800 1550 1650 
Q 1050 1500 800 1300 
L 500 1825 
Q 725 1875 1125 2312 
Q 1525 2750 1825 3175 
Q 1450 3100 1175 3037 
Q 900 2975 650 2800 
L 400 3225 
Q 675 3300 1050 3912 
Q 1425 4525 1650 5225 
L 2125 4900 
Q 1925 4775 1675 4400 
Q 1425 4000 825 3225 
Q 1475 3275 1900 3300 
Q 2100 3575 2300 4025 
L 2750 3675 
Q 2525 3575 2100 3050 
Q 1650 2525 1000 1825 
z
" transform="scale(0.015625)"/>
      <path id="SimSun-11bc" d="M 1250 3175 
L 4050 3175 
L 4350 3475 
L 4800 3025 
L 2050 3025 
Q 1700 3025 1475 2950 
L 1250 3175 
z
M 600 2125 
L 4850 2125 
L 5225 2500 
L 5750 1975 
L 3850 1975 
L 3850 300 
Q 3825 -75 4300 -75 
L 5225 -75 
Q 5475 -50 5525 162 
Q 5575 375 5600 1125 
L 5700 1125 
Q 5725 725 5762 400 
Q 5800 75 6075 -25 
Q 5875 -400 5325 -375 
L 4175 -375 
Q 3500 -400 3500 175 
L 3500 1975 
L 2600 1975 
Q 2525 1275 2362 775 
Q 2200 275 1775 -37 
Q 1350 -350 325 -650 
L 300 -550 
Q 1500 -100 1825 425 
Q 2150 950 2225 1975 
L 1150 1975 
L 800 1925 
L 600 2125 
z
M 2725 5150 
L 2775 5200 
Q 3200 5000 3350 4850 
Q 3500 4700 3500 4575 
Q 3500 4450 3400 4300 
Q 3300 4150 3250 4150 
Q 3175 4150 3125 4400 
Q 3025 4750 2725 5150 
z
M 5075 3400 
L 5325 4000 
L 1175 4000 
Q 1225 3800 1225 3725 
Q 1225 3575 1100 3437 
Q 975 3300 800 3325 
Q 625 3350 625 3400 
Q 625 3475 675 3525 
Q 800 3675 887 3900 
Q 975 4125 1025 4450 
L 1150 4450 
L 1175 4150 
L 5275 4150 
L 5475 4400 
L 5925 3975 
Q 5550 3925 5150 3350 
L 5075 3400 
z
" transform="scale(0.015625)"/>
      <path id="SimSun-1415" d="M 675 4350 
L 4825 4350 
L 5200 4725 
L 5725 4200 
L 3375 4200 
L 3375 125 
L 5050 125 
L 5475 550 
L 6050 -25 
L 1150 -25 
Q 825 -25 550 -100 
L 325 125 
L 3000 125 
L 3000 4200 
L 1500 4200 
Q 1175 4200 900 4125 
L 675 4350 
z
" transform="scale(0.015625)"/>
      <path id="SimSun-1c26" d="M 4500 3600 
Q 4500 4575 4475 5225 
L 5100 4900 
L 4850 4725 
L 4850 3600 
L 5225 3600 
L 5550 3925 
L 6025 3450 
L 4850 3450 
L 4850 100 
Q 4850 -375 4300 -575 
Q 4275 -200 3475 -25 
L 3475 100 
Q 4150 0 4325 25 
Q 4500 50 4500 325 
L 4500 3450 
L 3200 3450 
Q 2875 3450 2600 3375 
L 2375 3600 
L 4500 3600 
z
M 2875 2825 
Q 3525 2375 3637 2200 
Q 3750 2025 3750 1925 
Q 3750 1800 3637 1637 
Q 3525 1475 3475 1475 
Q 3400 1475 3325 1775 
Q 3200 2225 2800 2750 
L 2875 2825 
z
M 925 4150 
L 925 2650 
L 1950 2650 
L 1950 4150 
L 925 4150 
z
M 925 2500 
L 925 900 
L 1950 900 
L 1950 2500 
L 925 2500 
z
M 2300 2000 
Q 2300 800 2325 450 
L 1950 250 
L 1950 750 
L 925 750 
L 925 225 
L 550 25 
Q 575 825 575 2425 
Q 575 4025 550 4500 
L 950 4300 
L 1900 4300 
L 2100 4550 
L 2500 4225 
L 2300 4050 
L 2300 2000 
z
" transform="scale(0.015625)"/>
      <path id="SimSun-4c24" d="M 2150 525 
Q 2175 1325 2175 2112 
Q 2175 2900 2150 3675 
L 2525 3450 
L 3750 3450 
L 4000 3700 
L 4325 3375 
L 4125 3200 
Q 4125 1550 4150 775 
L 3800 575 
L 3800 975 
L 2500 975 
L 2500 700 
L 2150 525 
z
M 2500 3300 
L 2500 2325 
L 3800 2325 
L 3800 3300 
L 2500 3300 
z
M 2500 2175 
L 2500 1125 
L 3800 1125 
L 3800 2175 
L 2500 2175 
z
M 1275 5200 
Q 1850 4825 1950 4675 
Q 2050 4525 2050 4425 
Q 2050 4275 1950 4137 
Q 1850 4000 1825 4000 
Q 1750 4000 1675 4275 
Q 1550 4650 1200 5125 
L 1275 5200 
z
M 1125 425 
Q 1125 25 1150 -375 
L 750 -525 
Q 775 -150 775 1950 
Q 775 4050 750 4425 
L 1350 4125 
L 1125 3975 
L 1125 425 
z
M 4225 125 
Q 5025 0 5125 37 
Q 5225 75 5225 250 
L 5225 4450 
L 3225 4450 
Q 2900 4450 2625 4375 
L 2400 4600 
L 5175 4600 
L 5425 4850 
L 5775 4500 
L 5575 4350 
L 5575 225 
Q 5575 -100 5462 -250 
Q 5350 -400 5000 -550 
Q 4800 -125 4225 25 
L 4225 125 
z
" transform="scale(0.015625)"/>
      <path id="SimSun-1229" d="M 400 4250 
L 2375 4250 
L 2575 4500 
L 3000 4150 
L 2750 3950 
Q 2400 2850 2075 2100 
Q 2575 1375 2675 1062 
Q 2775 750 2762 537 
Q 2750 325 2662 237 
Q 2575 150 2550 150 
Q 2450 150 2375 575 
Q 2250 1075 1925 1800 
Q 1675 1350 1275 875 
Q 875 400 250 -100 
L 225 25 
Q 675 450 1087 1037 
Q 1500 1625 1725 2100 
Q 1000 3125 675 3550 
L 750 3625 
Q 1300 3025 1850 2400 
Q 2100 3050 2375 4100 
L 1225 4100 
Q 900 4100 625 4025 
L 400 4250 
z
M 3600 125 
Q 4375 0 4537 25 
Q 4700 50 4700 225 
L 4700 3350 
L 3525 3350 
Q 3200 3350 2925 3275 
L 2700 3500 
L 4700 3500 
L 4700 4350 
Q 4700 4800 4675 5125 
L 5275 4825 
L 5050 4625 
L 5050 3500 
L 5325 3500 
L 5650 3825 
L 6125 3350 
L 5050 3350 
L 5050 50 
Q 5050 -375 4500 -600 
Q 4500 -300 3600 0 
L 3600 125 
z
M 3100 2775 
L 3175 2825 
Q 3700 2400 3812 2175 
Q 3925 1950 3925 1800 
Q 3925 1625 3800 1462 
Q 3675 1300 3650 1300 
Q 3550 1300 3525 1650 
Q 3450 2125 3100 2775 
z
" transform="scale(0.015625)"/>
      <path id="SimSun-14c4" d="M 1850 3225 
Q 2650 2125 2750 1850 
Q 2850 1575 2850 1400 
Q 2850 1275 2812 1137 
Q 2775 1000 2637 925 
Q 2500 850 2400 1475 
Q 2275 2075 1775 3175 
L 1850 3225 
z
M 3100 3425 
Q 3650 2675 3862 2287 
Q 4075 1900 4037 1637 
Q 4000 1375 3900 1300 
Q 3800 1225 3775 1225 
Q 3625 1225 3575 1725 
Q 3475 2350 3000 3375 
L 3100 3425 
z
M 1175 75 
L 4075 75 
Q 4600 1400 4800 2087 
Q 5000 2775 5125 3450 
L 5700 3100 
Q 5525 3025 5150 2100 
Q 4750 1175 4250 75 
L 5125 75 
L 5550 500 
L 6125 -75 
L 2000 -75 
Q 1675 -75 1400 -150 
L 1175 75 
z
M 975 4475 
L 1350 4225 
L 5075 4225 
L 5475 4625 
L 6025 4075 
L 1350 4075 
Q 1350 3200 1337 2387 
Q 1325 1575 1100 850 
Q 875 125 325 -575 
L 250 -525 
Q 750 375 875 1225 
Q 1000 2075 1000 2850 
Q 1000 3625 975 4475 
z
M 3175 5225 
Q 3725 4925 3787 4812 
Q 3850 4700 3850 4625 
Q 3850 4525 3787 4412 
Q 3725 4300 3612 4250 
Q 3500 4200 3450 4450 
Q 3400 4700 3100 5175 
L 3175 5225 
z
" transform="scale(0.015625)"/>
      <path id="SimSun-2cb4" d="M 1125 3775 
L 1125 2175 
L 2425 2175 
L 2425 3775 
L 1125 3775 
z
M 1125 2025 
L 1125 275 
L 2425 275 
L 2425 2025 
L 1125 2025 
z
M 2750 3625 
Q 2750 700 2775 -200 
L 2425 -400 
L 2425 125 
L 1125 125 
L 1125 -300 
L 775 -500 
Q 800 675 800 1837 
Q 800 3000 775 4150 
L 1150 3925 
L 1400 3925 
Q 1650 4775 1675 5225 
L 2225 4925 
Q 1975 4800 1550 3925 
L 2375 3925 
L 2625 4175 
L 3000 3800 
L 2750 3625 
z
M 3975 5200 
L 4525 4875 
Q 4325 4750 3900 3850 
L 5250 3850 
L 5525 4125 
L 5900 3750 
L 5675 3575 
Q 5625 650 5537 262 
Q 5450 -125 5287 -275 
Q 5125 -425 4775 -550 
Q 4650 -150 3950 50 
L 3950 175 
Q 4575 50 4850 50 
Q 5125 50 5187 475 
Q 5250 900 5300 3700 
L 3850 3700 
Q 3400 2975 2900 2475 
L 2825 2525 
Q 3350 3325 3600 3950 
Q 3850 4575 3975 5200 
z
M 3525 2750 
Q 4125 2300 4225 2087 
Q 4325 1875 4325 1775 
Q 4325 1600 4225 1475 
Q 4125 1350 4075 1350 
Q 3975 1350 3925 1700 
Q 3825 2200 3475 2675 
L 3525 2750 
z
" transform="scale(0.015625)"/>
     </defs>
     <use xlink:href="#SimSun-332b"/>
     <use xlink:href="#SimSun-350f" transform="translate(100 0)"/>
     <use xlink:href="#SimSun-11bc" transform="translate(200 0)"/>
     <use xlink:href="#SimSun-1415" transform="translate(300 0)"/>
     <use xlink:href="#SimSun-1c26" transform="translate(400 0)"/>
     <use xlink:href="#SimSun-4c24" transform="translate(500 0)"/>
     <use xlink:href="#SimSun-1229" transform="translate(600 0)"/>
     <use xlink:href="#SimSun-14c4" transform="translate(700 0)"/>
     <use xlink:href="#SimSun-2cb4" transform="translate(800 0)"/>
     <use xlink:href="#SimSun-8d0" transform="translate(900 0)"/>
     <use xlink:href="#SimSun-464f" transform="translate(1000 0)"/>
     <use xlink:href="#SimSun-2204" transform="translate(1100 0)"/>
    </g>
   </g>
   <g id="legend_1">
    <g id="line2d_22">
     <path d="M 43.99 36.836478 
L 51.99 36.836478 
L 59.99 36.836478 
" style="fill: none; stroke: #262626; stroke-width: 1.2; stroke-linecap: square"/>
     <g>
      <use xlink:href="#m485debef98" x="51.99" y="36.836478" style="fill: #262626; stroke: #262626"/>
     </g>
    </g>
    <g id="text_17">
     <!-- 问题一 -->
     <g transform="translate(66.39 39.636478) scale(0.08 -0.08)">
      <defs>
       <path id="SimSun-4c1e" d="M 975 4100 
L 1600 3750 
L 1375 3600 
L 1375 -375 
L 975 -550 
Q 1000 525 1000 2000 
Q 1000 3475 975 4100 
z
M 3950 175 
Q 4500 125 4775 100 
Q 5050 75 5050 300 
L 5050 4375 
L 3675 4375 
Q 3350 4375 3075 4300 
L 2850 4525 
L 5025 4525 
L 5225 4825 
L 5650 4475 
L 5425 4275 
L 5425 225 
Q 5450 -425 4800 -550 
Q 4800 -100 3950 75 
L 3950 175 
z
M 1450 5175 
Q 1950 4900 2112 4712 
Q 2275 4525 2275 4400 
Q 2275 4275 2175 4112 
Q 2075 3950 2025 3950 
Q 1925 3950 1875 4175 
Q 1750 4550 1375 5125 
L 1450 5175 
z
M 2525 2850 
L 2525 1375 
L 3900 1375 
L 3900 2850 
L 2525 2850 
z
M 4250 1650 
Q 4250 1400 4275 1000 
L 3900 850 
L 3900 1225 
L 2525 1225 
L 2525 900 
L 2150 750 
Q 2175 1500 2175 2087 
Q 2175 2675 2150 3250 
L 2525 3000 
L 3875 3000 
L 4050 3275 
L 4450 2975 
L 4250 2800 
L 4250 1650 
z
" transform="scale(0.015625)"/>
       <path id="SimSun-4ec8" d="M 1350 4650 
L 1350 3925 
L 2525 3925 
L 2525 4650 
L 1350 4650 
z
M 1350 3775 
L 1350 3075 
L 2525 3075 
L 2525 3775 
L 1350 3775 
z
M 2850 4600 
Q 2850 3450 2875 2875 
L 2525 2700 
L 2525 2925 
L 1350 2925 
L 1350 2775 
L 1000 2650 
Q 1025 3225 1025 3850 
Q 1025 4475 1000 5000 
L 1350 4800 
L 2475 4800 
L 2650 5050 
L 3025 4750 
L 2850 4600 
z
M 1100 950 
Q 1375 600 1800 325 
L 1800 2225 
L 1275 2225 
Q 950 2225 675 2150 
L 450 2375 
L 2650 2375 
L 2950 2675 
L 3350 2225 
L 2125 2225 
L 2125 1350 
L 2600 1350 
L 2875 1625 
L 3250 1200 
L 2125 1200 
L 2125 225 
Q 2625 0 3837 -12 
Q 5050 -25 6075 100 
L 6075 0 
Q 5600 -175 5600 -400 
Q 3475 -425 2837 -300 
Q 2200 -175 1825 37 
Q 1450 250 1050 800 
Q 750 -100 325 -575 
L 250 -525 
Q 550 0 712 712 
Q 875 1425 900 1975 
L 1400 1725 
Q 1200 1650 1100 950 
z
M 5600 2500 
Q 5600 2300 5625 1725 
L 5275 1550 
L 5275 3750 
L 3825 3750 
L 3825 1675 
L 3475 1475 
Q 3500 2000 3500 2762 
Q 3500 3525 3475 4100 
L 3825 3900 
L 4150 3900 
Q 4250 4275 4275 4625 
L 3975 4625 
Q 3650 4625 3375 4550 
L 3150 4775 
L 5325 4775 
L 5625 5075 
L 6025 4625 
L 4700 4625 
Q 4600 4475 4275 3900 
L 5225 3900 
L 5400 4125 
L 5775 3850 
L 5600 3700 
L 5600 2500 
z
M 4325 3375 
L 4875 3100 
L 4675 2925 
Q 4675 1875 4550 1462 
Q 4425 1050 4062 700 
Q 3700 350 3000 100 
L 2950 175 
Q 3700 575 3987 1000 
Q 4275 1425 4312 2037 
Q 4350 2650 4325 3375 
z
M 4625 1425 
L 4675 1500 
Q 5650 1050 5737 900 
Q 5825 750 5825 650 
Q 5825 550 5775 412 
Q 5725 275 5675 275 
Q 5625 275 5500 525 
Q 5300 875 4625 1425 
z
" transform="scale(0.015625)"/>
       <path id="SimSun-430" d="M 350 2650 
L 5000 2650 
L 5500 3050 
L 6050 2500 
L 1250 2500 
Q 850 2500 575 2425 
L 350 2650 
z
" transform="scale(0.015625)"/>
      </defs>
      <use xlink:href="#SimSun-4c1e"/>
      <use xlink:href="#SimSun-4ec8" transform="translate(100 0)"/>
      <use xlink:href="#SimSun-430" transform="translate(200 0)"/>
     </g>
    </g>
    <g id="line2d_23">
     <path d="M 43.99 48.836478 
L 51.99 48.836478 
L 59.99 48.836478 
" style="fill: none; stroke-dasharray: 4.44,1.92; stroke-dashoffset: 0; stroke: #808080; stroke-width: 1.2"/>
     <g>
      <use xlink:href="#me199d9bd4e" x="51.99" y="48.836478" style="fill: #808080; stroke: #808080; stroke-linejoin: miter"/>
     </g>
    </g>
    <g id="text_18">
     <!-- 问题二 -->
     <g transform="translate(66.39 51.636478) scale(0.08 -0.08)">
      <defs>
       <path id="SimSun-4bc" d="M 975 3900 
L 4650 3900 
L 5000 4250 
L 5500 3750 
L 1775 3750 
Q 1475 3750 1200 3675 
L 975 3900 
z
M 350 425 
L 5000 425 
L 5450 875 
L 6050 275 
L 1200 275 
Q 850 275 575 200 
L 350 425 
z
" transform="scale(0.015625)"/>
      </defs>
      <use xlink:href="#SimSun-4c1e"/>
      <use xlink:href="#SimSun-4ec8" transform="translate(100 0)"/>
      <use xlink:href="#SimSun-4bc" transform="translate(200 0)"/>
     </g>
    </g>
   </g>
  </g>
  <g id="axes_2">
   <g id="patch_5">
    <path d="M 290.915 173.139521 
L 503.03952 173.139521 
L 503.03952 25.561478 
L 290.915 25.561478 
z
" style="fill: #ffffff"/>
   </g>
   <g id="matplotlib.axis_3">
    <g id="xtick_6">
     <g id="line2d_24">
      <g>
       <use xlink:href="#m460adb31c5" x="319.009414" y="173.139521" style="stroke: #000000; stroke-width: 0.65"/>
      </g>
     </g>
     <g id="text_19">
      <!-- 2 -->
      <g transform="translate(316.884414 186.944209) scale(0.085 -0.085)">
       <use xlink:href="#SimSun-15"/>
      </g>
     </g>
    </g>
    <g id="xtick_7">
     <g id="line2d_25">
      <g>
       <use xlink:href="#m460adb31c5" x="370.987978" y="173.139521" style="stroke: #000000; stroke-width: 0.65"/>
      </g>
     </g>
     <g id="text_20">
      <!-- 3 -->
      <g transform="translate(368.862978 186.944209) scale(0.085 -0.085)">
       <use xlink:href="#SimSun-16"/>
      </g>
     </g>
    </g>
    <g id="xtick_8">
     <g id="line2d_26">
      <g>
       <use xlink:href="#m460adb31c5" x="422.966542" y="173.139521" style="stroke: #000000; stroke-width: 0.65"/>
      </g>
     </g>
     <g id="text_21">
      <!-- 4 -->
      <g transform="translate(420.841542 186.944209) scale(0.085 -0.085)">
       <use xlink:href="#SimSun-17"/>
      </g>
     </g>
    </g>
    <g id="xtick_9">
     <g id="line2d_27">
      <g>
       <use xlink:href="#m460adb31c5" x="474.945106" y="173.139521" style="stroke: #000000; stroke-width: 0.65"/>
      </g>
     </g>
     <g id="text_22">
      <!-- 5 -->
      <g transform="translate(472.820106 186.944209) scale(0.085 -0.085)">
       <use xlink:href="#SimSun-18"/>
      </g>
     </g>
    </g>
    <g id="text_23">
     <!-- 核心数 -->
     <g transform="translate(384.22726 199.444209) scale(0.085 -0.085)">
      <use xlink:href="#SimSun-1e68"/>
      <use xlink:href="#SimSun-15f3" transform="translate(100 0)"/>
      <use xlink:href="#SimSun-1ba0" transform="translate(200 0)"/>
     </g>
    </g>
   </g>
   <g id="matplotlib.axis_4">
    <g id="ytick_8">
     <g id="line2d_28">
      <path d="M 290.915 173.139521 
L 503.03952 173.139521 
" clip-path="url(#pee15519b58)" style="fill: none; stroke: #e6e6e6; stroke-width: 0.5; stroke-linecap: square"/>
     </g>
     <g id="line2d_29">
      <g>
       <use xlink:href="#m0a3200f2f8" x="290.915" y="173.139521" style="stroke: #000000; stroke-width: 0.65"/>
      </g>
     </g>
     <g id="text_24">
      <!-- 0.0 -->
      <g transform="translate(271.665 176.791865) scale(0.085 -0.085)">
       <use xlink:href="#SimSun-13"/>
       <use xlink:href="#SimSun-11" transform="translate(50 0)"/>
       <use xlink:href="#SimSun-13" transform="translate(100 0)"/>
      </g>
     </g>
    </g>
    <g id="ytick_9">
     <g id="line2d_30">
      <path d="M 290.915 150.552471 
L 503.03952 150.552471 
" clip-path="url(#pee15519b58)" style="fill: none; stroke: #e6e6e6; stroke-width: 0.5; stroke-linecap: square"/>
     </g>
     <g id="line2d_31">
      <g>
       <use xlink:href="#m0a3200f2f8" x="290.915" y="150.552471" style="stroke: #000000; stroke-width: 0.65"/>
      </g>
     </g>
     <g id="text_25">
      <!-- 2.5 -->
      <g transform="translate(271.665 154.204815) scale(0.085 -0.085)">
       <use xlink:href="#SimSun-15"/>
       <use xlink:href="#SimSun-11" transform="translate(50 0)"/>
       <use xlink:href="#SimSun-18" transform="translate(100 0)"/>
      </g>
     </g>
    </g>
    <g id="ytick_10">
     <g id="line2d_32">
      <path d="M 290.915 127.965421 
L 503.03952 127.965421 
" clip-path="url(#pee15519b58)" style="fill: none; stroke: #e6e6e6; stroke-width: 0.5; stroke-linecap: square"/>
     </g>
     <g id="line2d_33">
      <g>
       <use xlink:href="#m0a3200f2f8" x="290.915" y="127.965421" style="stroke: #000000; stroke-width: 0.65"/>
      </g>
     </g>
     <g id="text_26">
      <!-- 5.0 -->
      <g transform="translate(271.665 131.617765) scale(0.085 -0.085)">
       <use xlink:href="#SimSun-18"/>
       <use xlink:href="#SimSun-11" transform="translate(50 0)"/>
       <use xlink:href="#SimSun-13" transform="translate(100 0)"/>
      </g>
     </g>
    </g>
    <g id="ytick_11">
     <g id="line2d_34">
      <path d="M 290.915 105.37837 
L 503.03952 105.37837 
" clip-path="url(#pee15519b58)" style="fill: none; stroke: #e6e6e6; stroke-width: 0.5; stroke-linecap: square"/>
     </g>
     <g id="line2d_35">
      <g>
       <use xlink:href="#m0a3200f2f8" x="290.915" y="105.37837" style="stroke: #000000; stroke-width: 0.65"/>
      </g>
     </g>
     <g id="text_27">
      <!-- 7.5 -->
      <g transform="translate(271.665 109.030714) scale(0.085 -0.085)">
       <defs>
        <path id="SimSun-1a" d="M 2825 4200 
Q 2300 3350 1987 2537 
Q 1675 1725 1675 1125 
Q 1675 1025 1700 850 
Q 1700 650 1700 400 
Q 1700 200 1637 125 
Q 1575 50 1425 50 
Q 1300 50 1212 137 
Q 1125 225 1125 450 
Q 1125 925 1337 1625 
Q 1550 2325 2475 4000 
L 1225 4000 
Q 950 4000 787 3825 
Q 625 3650 550 3300 
L 400 3325 
L 575 4375 
L 2825 4375 
L 2825 4200 
z
" transform="scale(0.015625)"/>
       </defs>
       <use xlink:href="#SimSun-1a"/>
       <use xlink:href="#SimSun-11" transform="translate(50 0)"/>
       <use xlink:href="#SimSun-18" transform="translate(100 0)"/>
      </g>
     </g>
    </g>
    <g id="ytick_12">
     <g id="line2d_36">
      <path d="M 290.915 82.79132 
L 503.03952 82.79132 
" clip-path="url(#pee15519b58)" style="fill: none; stroke: #e6e6e6; stroke-width: 0.5; stroke-linecap: square"/>
     </g>
     <g id="line2d_37">
      <g>
       <use xlink:href="#m0a3200f2f8" x="290.915" y="82.79132" style="stroke: #000000; stroke-width: 0.65"/>
      </g>
     </g>
     <g id="text_28">
      <!-- 10.0 -->
      <g transform="translate(267.415 86.443664) scale(0.085 -0.085)">
       <use xlink:href="#SimSun-14"/>
       <use xlink:href="#SimSun-13" transform="translate(50 0)"/>
       <use xlink:href="#SimSun-11" transform="translate(100 0)"/>
       <use xlink:href="#SimSun-13" transform="translate(150 0)"/>
      </g>
     </g>
    </g>
    <g id="ytick_13">
     <g id="line2d_38">
      <path d="M 290.915 60.20427 
L 503.03952 60.20427 
" clip-path="url(#pee15519b58)" style="fill: none; stroke: #e6e6e6; stroke-width: 0.5; stroke-linecap: square"/>
     </g>
     <g id="line2d_39">
      <g>
       <use xlink:href="#m0a3200f2f8" x="290.915" y="60.20427" style="stroke: #000000; stroke-width: 0.65"/>
      </g>
     </g>
     <g id="text_29">
      <!-- 12.5 -->
      <g transform="translate(267.415 63.856614) scale(0.085 -0.085)">
       <use xlink:href="#SimSun-14"/>
       <use xlink:href="#SimSun-15" transform="translate(50 0)"/>
       <use xlink:href="#SimSun-11" transform="translate(100 0)"/>
       <use xlink:href="#SimSun-18" transform="translate(150 0)"/>
      </g>
     </g>
    </g>
    <g id="ytick_14">
     <g id="line2d_40">
      <path d="M 290.915 37.617219 
L 503.03952 37.617219 
" clip-path="url(#pee15519b58)" style="fill: none; stroke: #e6e6e6; stroke-width: 0.5; stroke-linecap: square"/>
     </g>
     <g id="line2d_41">
      <g>
       <use xlink:href="#m0a3200f2f8" x="290.915" y="37.617219" style="stroke: #000000; stroke-width: 0.65"/>
      </g>
     </g>
     <g id="text_30">
      <!-- 15.0 -->
      <g transform="translate(267.415 41.269563) scale(0.085 -0.085)">
       <use xlink:href="#SimSun-14"/>
       <use xlink:href="#SimSun-18" transform="translate(50 0)"/>
       <use xlink:href="#SimSun-11" transform="translate(100 0)"/>
       <use xlink:href="#SimSun-13" transform="translate(150 0)"/>
      </g>
     </g>
    </g>
    <g id="text_31">
     <!-- 平均额外搬运 / MiB -->
     <g transform="translate(262.219687 137.6005) rotate(-90) scale(0.085 -0.085)">
      <defs>
       <path id="SimSun-4ecd" d="M 1400 1275 
L 1400 125 
L 2400 125 
L 2400 1275 
L 1400 1275 
z
M 2600 3625 
L 2825 4125 
L 950 4125 
Q 925 3800 825 3687 
Q 725 3575 600 3575 
Q 475 3575 425 3675 
Q 375 3775 550 3925 
Q 725 4075 850 4525 
L 950 4525 
L 950 4275 
L 1875 4275 
Q 1850 4525 1787 4675 
Q 1725 4825 1500 5150 
L 1575 5200 
Q 2050 4900 2137 4750 
Q 2225 4600 2225 4550 
Q 2225 4425 2025 4275 
L 2800 4275 
L 3000 4500 
L 3400 4100 
Q 3250 4100 3125 4037 
Q 3000 3975 2675 3600 
L 2600 3625 
z
M 1075 -475 
Q 1100 0 1100 1425 
Q 800 1225 300 1000 
L 250 1075 
Q 1100 1525 1825 2400 
Q 1525 2550 1125 2725 
Q 750 2300 500 2125 
L 450 2200 
Q 850 2675 1087 3175 
Q 1325 3675 1375 3950 
L 1825 3700 
L 1675 3600 
L 1500 3300 
L 2350 3300 
L 2550 3500 
L 2875 3175 
L 2675 3075 
Q 2450 2775 2200 2450 
Q 2700 2250 2912 2112 
Q 3125 1975 3100 1762 
Q 3075 1550 3025 1550 
Q 2975 1550 2875 1650 
Q 2650 1875 2050 2250 
Q 1775 1925 1275 1525 
L 1400 1425 
L 2375 1425 
L 2575 1625 
L 2875 1325 
L 2700 1200 
Q 2700 300 2725 -75 
L 2400 -275 
L 2400 -25 
L 1400 -25 
L 1400 -275 
L 1075 -475 
z
M 1175 2800 
Q 1400 2750 1950 2550 
Q 2150 2825 2325 3150 
L 1425 3150 
Q 1300 2975 1175 2800 
z
M 3375 800 
Q 3400 1450 3400 2312 
Q 3400 3175 3375 3925 
L 3750 3725 
L 4175 3725 
Q 4275 4425 4300 4700 
L 3775 4700 
Q 3450 4700 3175 4625 
L 2950 4850 
L 5400 4850 
L 5750 5125 
L 6150 4700 
L 4725 4700 
Q 4575 4425 4325 3725 
L 5375 3725 
L 5625 3975 
L 5950 3650 
L 5750 3500 
L 5750 1975 
Q 5750 1550 5775 1100 
L 5425 900 
L 5425 3575 
L 3725 3575 
L 3725 1025 
L 3375 800 
z
M 4975 2825 
L 4750 2650 
Q 4750 1500 4562 925 
Q 4375 350 3937 -12 
Q 3500 -375 2750 -650 
L 2725 -550 
Q 3600 -100 3950 362 
Q 4300 825 4362 1550 
Q 4425 2275 4400 3150 
L 4975 2825 
z
M 4725 850 
Q 5650 375 5850 150 
Q 6050 -75 6050 -250 
Q 6050 -325 6000 -462 
Q 5950 -600 5900 -600 
Q 5850 -600 5775 -475 
Q 5650 -225 5412 87 
Q 5175 400 4675 775 
L 4725 850 
z
" transform="scale(0.015625)"/>
       <path id="SimSun-f46" d="M 4400 2825 
L 4400 600 
Q 4400 -75 4425 -450 
L 4025 -625 
Q 4050 -150 4050 475 
L 4050 4125 
Q 4050 4825 4025 5175 
L 4650 4900 
L 4400 4700 
L 4400 2950 
Q 5300 2650 5650 2437 
Q 6000 2225 5937 1925 
Q 5875 1625 5800 1625 
Q 5725 1625 5550 1875 
Q 5250 2300 4400 2825 
z
M 1825 5175 
L 2425 4850 
L 2225 4725 
Q 2025 4250 1825 3725 
L 2900 3725 
L 3100 4000 
L 3600 3575 
Q 3350 3600 3000 2500 
Q 2625 1400 1975 675 
Q 1325 -50 425 -450 
L 375 -375 
Q 1525 350 2075 1312 
Q 2625 2275 2925 3575 
L 1775 3575 
Q 1575 3100 1375 2750 
Q 2175 2475 2225 2262 
Q 2275 2050 2200 1912 
Q 2125 1775 2075 1775 
Q 2000 1775 1925 1950 
Q 1775 2225 1325 2650 
Q 875 1975 475 1600 
L 400 1675 
Q 900 2325 1312 3387 
Q 1725 4450 1825 5175 
z
" transform="scale(0.015625)"/>
       <path id="SimSun-1a5c" d="M 2325 4500 
L 2650 4325 
L 2750 4325 
Q 2925 4950 2900 5225 
L 3350 4975 
Q 3175 4900 2875 4325 
L 3325 4325 
L 3525 4525 
L 3825 4225 
L 3650 4100 
L 3650 300 
Q 3650 -150 3175 -325 
Q 3200 -50 2625 100 
L 2625 200 
Q 2900 150 3100 150 
Q 3225 150 3287 187 
Q 3350 225 3350 525 
L 3350 2250 
L 2650 2250 
Q 2600 1200 2300 525 
Q 2000 -150 1450 -625 
L 1400 -550 
Q 1875 -25 2100 700 
Q 2325 1425 2350 2250 
L 2200 2250 
L 1975 2200 
L 1775 2400 
L 2350 2400 
Q 2350 4075 2325 4500 
z
M 2650 4175 
L 2650 2400 
L 3350 2400 
L 3350 4175 
L 2650 4175 
z
M 2800 1925 
Q 3075 1600 3137 1437 
Q 3200 1275 3200 1225 
Q 3200 1100 3112 1012 
Q 3025 925 3000 925 
Q 2925 925 2900 1175 
Q 2875 1525 2725 1900 
L 2800 1925 
z
M 2775 3725 
Q 3100 3425 3162 3287 
Q 3225 3150 3225 3100 
Q 3225 3000 3150 2912 
Q 3075 2825 3025 2825 
Q 2975 2825 2950 3025 
Q 2900 3325 2725 3700 
L 2775 3725 
z
M 4150 4800 
L 4525 4575 
L 5000 4575 
L 5225 4800 
L 5575 4475 
L 5375 4350 
L 5375 3375 
Q 5350 3150 5550 3150 
Q 5750 3150 5850 3225 
Q 5875 3250 5925 3250 
Q 6000 3250 6062 3187 
Q 6125 3125 6125 3100 
Q 6125 3025 6012 2937 
Q 5900 2850 5450 2875 
Q 5050 2850 5050 3275 
L 5050 4425 
L 4500 4425 
Q 4525 3575 4337 3187 
Q 4150 2800 3800 2550 
L 3725 2600 
Q 4075 2975 4137 3400 
Q 4200 3825 4187 4162 
Q 4175 4500 4150 4800 
z
M 5750 2300 
L 5550 2175 
Q 5350 1350 4900 575 
Q 5200 200 5487 12 
Q 5775 -175 6075 -225 
L 6075 -325 
Q 5675 -350 5600 -550 
Q 5100 -225 4700 350 
Q 4125 -275 3250 -625 
L 3200 -550 
Q 3950 -150 4550 575 
Q 4425 850 4287 1275 
Q 4150 1700 4050 2250 
L 3950 2200 
L 3750 2400 
L 5225 2400 
L 5400 2600 
L 5750 2300 
z
M 4175 2250 
Q 4250 1950 4387 1537 
Q 4525 1125 4700 850 
Q 4800 1025 4962 1450 
Q 5125 1875 5225 2250 
L 4175 2250 
z
M 1500 2525 
L 2175 2950 
L 2225 2850 
L 1500 2300 
L 1500 75 
Q 1525 -350 950 -550 
Q 1000 -275 375 -25 
L 375 75 
Q 950 -50 1075 -25 
Q 1200 0 1200 275 
L 1200 2075 
Q 675 1700 575 1500 
L 250 1900 
Q 500 1975 1200 2375 
L 1200 3575 
L 675 3575 
L 450 3525 
L 250 3725 
L 1200 3725 
Q 1200 4600 1175 5125 
L 1675 4850 
L 1500 4700 
L 1500 3725 
L 1675 3725 
L 1900 3950 
L 2275 3575 
L 1500 3575 
L 1500 2525 
z
" transform="scale(0.015625)"/>
       <path id="SimSun-4600" d="M 2450 4475 
L 4625 4475 
L 4975 4800 
L 5425 4325 
L 3125 4325 
Q 2950 4325 2675 4250 
L 2450 4475 
z
M 2300 1225 
Q 2550 1275 2775 1550 
Q 3000 1825 3250 2250 
Q 3500 2675 3600 3025 
L 2700 3025 
Q 2500 3025 2225 2950 
L 2000 3175 
L 5100 3175 
L 5475 3550 
L 5950 3025 
L 3675 3025 
L 4125 2700 
Q 3925 2700 3550 2175 
Q 3150 1625 2700 1175 
L 4925 1275 
Q 4750 1650 4375 2075 
L 4450 2125 
Q 4975 1800 5262 1512 
Q 5550 1225 5512 987 
Q 5475 750 5400 687 
Q 5325 625 5275 625 
Q 5200 625 5150 775 
Q 5075 975 5000 1150 
Q 3700 1025 3262 925 
Q 2825 825 2600 675 
L 2300 1225 
z
M 825 4925 
L 900 4975 
Q 1400 4725 1575 4550 
Q 1750 4375 1725 4187 
Q 1700 4000 1600 3912 
Q 1500 3825 1450 3825 
Q 1350 3825 1300 4075 
Q 1225 4425 825 4925 
z
M 1600 825 
Q 1825 575 2225 350 
Q 2625 125 3387 87 
Q 4150 50 4837 75 
Q 5525 100 6150 200 
L 6150 100 
Q 5625 -50 5625 -325 
Q 4500 -325 3762 -300 
Q 3025 -275 2562 -87 
Q 2100 100 1825 375 
Q 1550 625 1425 650 
Q 1300 675 1012 375 
Q 725 75 600 -100 
L 250 250 
Q 650 575 1275 825 
L 1275 2850 
L 1100 2850 
Q 775 2850 500 2775 
L 275 3000 
L 1225 3000 
L 1400 3275 
L 1825 2950 
L 1600 2775 
L 1600 825 
z
" transform="scale(0.015625)"/>
       <path id="SimSun-3" d="M 0 0 
Q 0 0 0 0 
z
" transform="scale(0.015625)"/>
       <path id="SimSun-12" d="M 400 -475 
L 225 -375 
L 2775 4975 
L 2950 4875 
L 400 -475 
z
" transform="scale(0.015625)"/>
       <path id="SimSun-30" d="M 2800 450 
Q 2800 350 2862 300 
Q 2925 250 3025 250 
L 3125 250 
L 3125 100 
L 2050 100 
L 2050 250 
L 2175 250 
Q 2300 250 2350 300 
Q 2400 350 2400 450 
L 2400 3725 
L 2350 3725 
L 1500 100 
L 1350 100 
L 575 3650 
L 525 3650 
L 525 450 
Q 525 350 587 300 
Q 650 250 750 250 
L 825 250 
L 825 100 
L 75 100 
L 75 250 
L 150 250 
Q 275 250 325 300 
Q 375 350 375 450 
L 375 4025 
Q 375 4125 325 4175 
Q 275 4225 150 4225 
L 50 4225 
L 50 4375 
L 775 4375 
L 1500 1025 
L 1550 1025 
L 2325 4375 
L 3125 4375 
L 3125 4225 
L 3025 4225 
Q 2925 4225 2862 4175 
Q 2800 4125 2800 4025 
L 2800 450 
z
" transform="scale(0.015625)"/>
       <path id="SimSun-4c" d="M 1425 2525 
Q 1425 2625 1375 2687 
Q 1325 2750 1200 2750 
L 675 2750 
L 675 2900 
L 925 2900 
Q 1150 2900 1350 2937 
Q 1550 2975 1725 3075 
L 1775 3075 
L 1775 450 
Q 1775 350 1837 300 
Q 1900 250 2000 250 
L 2525 250 
L 2525 100 
L 675 100 
L 675 250 
L 1200 250 
Q 1325 250 1375 300 
Q 1425 350 1425 450 
L 1425 2525 
z
M 1725 3025 
L 1725 3025 
z
M 1625 4425 
Q 1750 4425 1850 4337 
Q 1950 4250 1950 4125 
Q 1950 4000 1850 3900 
Q 1750 3800 1625 3800 
Q 1500 3800 1400 3900 
Q 1300 4000 1300 4125 
Q 1300 4250 1400 4337 
Q 1500 4425 1625 4425 
z
" transform="scale(0.015625)"/>
       <path id="SimSun-25" d="M 100 100 
L 100 250 
L 300 250 
Q 425 250 475 300 
Q 525 350 525 450 
L 525 4025 
Q 525 4125 475 4175 
Q 425 4225 300 4225 
L 150 4225 
L 150 4375 
L 1600 4375 
Q 2200 4375 2487 4137 
Q 2775 3900 2775 3400 
Q 2775 3050 2625 2825 
Q 2475 2600 2000 2425 
Q 2575 2250 2775 1925 
Q 2975 1600 2975 1200 
Q 2975 700 2625 400 
Q 2275 100 1675 100 
L 100 100 
z
M 1600 250 
Q 2025 250 2262 512 
Q 2500 775 2500 1250 
Q 2500 1800 2250 2062 
Q 2000 2325 1500 2325 
L 925 2325 
L 925 450 
Q 925 350 987 300 
Q 1050 250 1150 250 
L 1600 250 
z
M 2350 3400 
Q 2350 3850 2100 4037 
Q 1850 4225 1450 4225 
L 1150 4225 
Q 1050 4225 987 4175 
Q 925 4125 925 4025 
L 925 2475 
L 1575 2475 
Q 1850 2475 2100 2700 
Q 2350 2925 2350 3400 
z
" transform="scale(0.015625)"/>
      </defs>
      <use xlink:href="#SimSun-14a3"/>
      <use xlink:href="#SimSun-d77" transform="translate(100 0)"/>
      <use xlink:href="#SimSun-4ecd" transform="translate(200 0)"/>
      <use xlink:href="#SimSun-f46" transform="translate(300 0)"/>
      <use xlink:href="#SimSun-1a5c" transform="translate(400 0)"/>
      <use xlink:href="#SimSun-4600" transform="translate(500 0)"/>
      <use xlink:href="#SimSun-3" transform="translate(600 0)"/>
      <use xlink:href="#SimSun-12" transform="translate(650 0)"/>
      <use xlink:href="#SimSun-3" transform="translate(700 0)"/>
      <use xlink:href="#SimSun-30" transform="translate(750 0)"/>
      <use xlink:href="#SimSun-4c" transform="translate(800 0)"/>
      <use xlink:href="#SimSun-25" transform="translate(850 0)"/>
     </g>
    </g>
   </g>
   <g id="patch_6">
    <path d="M 300.557024 173.139521 
L 318.749521 173.139521 
L 318.749521 48.021518 
L 300.557024 48.021518 
z
" clip-path="url(#pee15519b58)" style="fill: #404040; stroke: #333333; stroke-width: 0.6; stroke-linejoin: miter"/>
   </g>
   <g id="patch_7">
    <path d="M 352.535588 173.139521 
L 370.728085 173.139521 
L 370.728085 42.007264 
L 352.535588 42.007264 
z
" clip-path="url(#pee15519b58)" style="fill: #404040; stroke: #333333; stroke-width: 0.6; stroke-linejoin: miter"/>
   </g>
   <g id="patch_8">
    <path d="M 404.514152 173.139521 
L 422.706649 173.139521 
L 422.706649 32.589004 
L 404.514152 32.589004 
z
" clip-path="url(#pee15519b58)" style="fill: #404040; stroke: #333333; stroke-width: 0.6; stroke-linejoin: miter"/>
   </g>
   <g id="patch_9">
    <path d="M 456.492716 173.139521 
L 474.685213 173.139521 
L 474.685213 35.043594 
L 456.492716 35.043594 
z
" clip-path="url(#pee15519b58)" style="fill: #404040; stroke: #333333; stroke-width: 0.6; stroke-linejoin: miter"/>
   </g>
   <g id="patch_10">
    <path d="M 319.269307 173.139521 
L 337.461804 173.139521 
L 337.461804 82.100474 
L 319.269307 82.100474 
z
" clip-path="url(#pee15519b58)" style="fill: url(#he7604f3922); stroke: #333333; stroke-width: 0.6; stroke-linejoin: miter"/>
   </g>
   <g id="patch_11">
    <path d="M 371.247871 173.139521 
L 389.440368 173.139521 
L 389.440368 94.689409 
L 371.247871 94.689409 
z
" clip-path="url(#pee15519b58)" style="fill: url(#he7604f3922); stroke: #333333; stroke-width: 0.6; stroke-linejoin: miter"/>
   </g>
   <g id="patch_12">
    <path d="M 423.226435 173.139521 
L 441.418932 173.139521 
L 441.418932 95.721179 
L 423.226435 95.721179 
z
" clip-path="url(#pee15519b58)" style="fill: url(#he7604f3922); stroke: #333333; stroke-width: 0.6; stroke-linejoin: miter"/>
   </g>
   <g id="patch_13">
    <path d="M 475.204999 173.139521 
L 493.397496 173.139521 
L 493.397496 84.99393 
L 475.204999 84.99393 
z
" clip-path="url(#pee15519b58)" style="fill: url(#he7604f3922); stroke: #333333; stroke-width: 0.6; stroke-linejoin: miter"/>
   </g>
   <g id="patch_14">
    <path d="M 290.915 173.139521 
L 290.915 25.561478 
" style="fill: none; stroke: #000000; stroke-width: 0.65; stroke-linejoin: miter; stroke-linecap: square"/>
   </g>
   <g id="patch_15">
    <path d="M 290.915 173.139521 
L 503.03952 173.139521 
" style="fill: none; stroke: #000000; stroke-width: 0.65; stroke-linejoin: miter; stroke-linecap: square"/>
   </g>
   <g id="text_32">
    <!-- b -->
    <g transform="translate(263.338812 14.493125) scale(0.11 -0.11)">
     <defs>
      <path id="SimSun-45" d="M 875 2325 
Q 1000 2600 1275 2762 
Q 1550 2925 1800 2925 
Q 2325 2925 2587 2562 
Q 2850 2200 2850 1500 
Q 2850 800 2512 437 
Q 2175 75 1675 75 
Q 1425 75 1212 162 
Q 1000 250 850 400 
L 625 100 
L 525 100 
L 525 4025 
Q 525 4125 475 4175 
Q 425 4225 300 4225 
L 150 4225 
L 150 4375 
L 375 4375 
Q 500 4375 625 4425 
Q 750 4475 875 4575 
L 875 2325 
z
M 875 925 
Q 875 650 1062 450 
Q 1250 250 1625 250 
Q 2075 250 2262 562 
Q 2450 875 2450 1500 
Q 2450 2100 2287 2412 
Q 2125 2725 1775 2725 
Q 1475 2725 1250 2550 
Q 1025 2375 875 1925 
L 875 925 
z
" transform="scale(0.015625)"/>
     </defs>
     <use xlink:href="#SimSun-45"/>
    </g>
   </g>
   <g id="text_33">
    <!-- 官方额外搬运 -->
    <g transform="translate(290.915 14.561478) scale(0.09 -0.09)">
     <defs>
      <path id="SimSun-11c8" d="M 1950 3175 
L 1950 2250 
L 4300 2250 
L 4300 3175 
L 1950 3175 
z
M 1950 1125 
L 1950 0 
L 4500 0 
L 4500 1125 
L 1950 1125 
z
M 1575 -600 
Q 1600 150 1600 1312 
Q 1600 2475 1575 3525 
L 1950 3325 
L 4250 3325 
L 4500 3575 
L 4850 3225 
L 4650 3075 
Q 4650 2200 4675 2000 
L 4300 1825 
L 4300 2100 
L 1950 2100 
L 1950 1275 
L 4450 1275 
L 4700 1525 
L 5050 1175 
L 4850 1025 
Q 4850 75 4875 -350 
L 4500 -500 
L 4500 -150 
L 1950 -150 
L 1950 -475 
L 1575 -600 
z
M 2625 5175 
L 2675 5250 
Q 3175 5025 3337 4887 
Q 3500 4750 3500 4600 
Q 3500 4500 3412 4350 
Q 3325 4200 3275 4200 
Q 3175 4200 3100 4450 
Q 2975 4825 2625 5175 
z
M 5025 3375 
L 5325 4025 
L 1150 4025 
Q 1175 3475 1012 3375 
Q 850 3275 750 3275 
Q 675 3275 587 3325 
Q 500 3375 500 3425 
Q 500 3525 650 3650 
Q 875 3850 1050 4450 
L 1150 4450 
L 1150 4175 
L 5275 4175 
L 5550 4450 
L 6025 3950 
Q 5600 3950 5125 3325 
L 5025 3375 
z
" transform="scale(0.015625)"/>
      <path id="SimSun-1be9" d="M 275 3925 
L 5250 3925 
L 5625 4300 
L 6150 3775 
L 3075 3775 
Q 3050 3300 2950 2675 
L 4575 2675 
L 4825 2925 
L 5225 2550 
L 4975 2400 
Q 4725 475 4625 125 
Q 4525 -225 4312 -362 
Q 4100 -500 3725 -600 
Q 3625 -200 2900 100 
L 2925 200 
Q 3600 0 3812 -12 
Q 4025 -25 4137 75 
Q 4250 175 4350 712 
Q 4450 1250 4600 2525 
L 2925 2525 
Q 2500 350 475 -575 
L 425 -475 
Q 2675 800 2675 3775 
L 1100 3775 
Q 775 3775 500 3700 
L 275 3925 
z
M 2675 5150 
Q 3325 4900 3437 4725 
Q 3550 4550 3550 4450 
Q 3550 4350 3450 4212 
Q 3350 4075 3325 4075 
Q 3225 4075 3125 4350 
Q 2975 4725 2625 5075 
L 2675 5150 
z
" transform="scale(0.015625)"/>
     </defs>
     <use xlink:href="#SimSun-11c8"/>
     <use xlink:href="#SimSun-1be9" transform="translate(100 0)"/>
     <use xlink:href="#SimSun-4ecd" transform="translate(200 0)"/>
     <use xlink:href="#SimSun-f46" transform="translate(300 0)"/>
     <use xlink:href="#SimSun-1a5c" transform="translate(400 0)"/>
     <use xlink:href="#SimSun-4600" transform="translate(500 0)"/>
    </g>
   </g>
   <g id="legend_2">
    <g id="patch_16">
     <path d="M 449.43952 39.636478 
L 465.43952 39.636478 
L 465.43952 34.036478 
L 449.43952 34.036478 
z
" style="fill: #404040; stroke: #333333; stroke-width: 0.6; stroke-linejoin: miter"/>
    </g>
    <g id="text_34">
     <!-- 问题一 -->
     <g transform="translate(471.83952 39.636478) scale(0.08 -0.08)">
      <use xlink:href="#SimSun-4c1e"/>
      <use xlink:href="#SimSun-4ec8" transform="translate(100 0)"/>
      <use xlink:href="#SimSun-430" transform="translate(200 0)"/>
     </g>
    </g>
    <g id="patch_17">
     <path d="M 449.43952 51.636478 
L 465.43952 51.636478 
L 465.43952 46.036478 
L 449.43952 46.036478 
z
" style="fill: url(#he7604f3922); stroke: #333333; stroke-width: 0.6; stroke-linejoin: miter"/>
    </g>
    <g id="text_35">
     <!-- 问题二 -->
     <g transform="translate(471.83952 51.636478) scale(0.08 -0.08)">
      <use xlink:href="#SimSun-4c1e"/>
      <use xlink:href="#SimSun-4ec8" transform="translate(100 0)"/>
      <use xlink:href="#SimSun-4bc" transform="translate(200 0)"/>
     </g>
    </g>
   </g>
  </g>
 </g>
 <defs>
  <clipPath id="p09497ff226">
   <rect x="36.79" y="25.561478" width="212.12452" height="147.578043"/>
  </clipPath>
  <clipPath id="pee15519b58">
   <rect x="290.915" y="25.561478" width="212.12452" height="147.578043"/>
  </clipPath>
 </defs>
 <defs>
  <pattern id="he7604f3922" patternUnits="userSpaceOnUse" x="0" y="0" width="72" height="72">
   <rect x="0" y="0" width="73" height="73" fill="#ffffff"/>
   <path d="M -36 36 
L 36 -36 
M -32 40 
L 40 -32 
M -28 44 
L 44 -28 
M -24 48 
L 48 -24 
M -20 52 
L 52 -20 
M -16 56 
L 56 -16 
M -12 60 
L 60 -12 
M -8 64 
L 64 -8 
M -4 68 
L 68 -4 
M 0 72 
L 72 0 
M 4 76 
L 76 4 
M 8 80 
L 80 8 
M 12 84 
L 84 12 
M 16 88 
L 88 16 
M 20 92 
L 92 20 
M 24 96 
L 96 24 
M 28 100 
L 100 28 
M 32 104 
L 104 32 
M 36 108 
L 108 36 
" style="fill: #333333; stroke: #333333; stroke-width: 1.0; stroke-linecap: butt; stroke-linejoin: miter"/>
  </pattern>
 </defs>
</svg>
